<!DOCTYPE svg PUBLIC "-//W3C//DTD SVG 1.1//EN" "http://www.w3.org/Graphics/SVG/1.1/DTD/svg11.dtd">
<!-- Uploaded to: SVG Repo, www.svgrepo.com, Transformed by: SVG Repo Mixer Tools -->
<svg width="180px" height="180px" viewBox="-4.08 -4.08 32.16 32.16" fill="none" xmlns="http://www.w3.org/2000/svg" transform="rotate(0)matrix(-1, 0, 0, 1, 0, 0)" stroke="#000000">
<g id="SVGRepo_bgCarrier" stroke-width="0"/>
<g id="SVGRepo_tracerCarrier" stroke-linecap="round" stroke-linejoin="round"/>
<g id="SVGRepo_iconCarrier"> <path opacity="0.15" d="M12 3C12 7.97056 16.0294 12 21 12C16.0294 12 12 16.0294 12 21C12 16.0294 7.97056 12 3 12C7.97056 12 12 7.97056 12 3Z" fill="#000000"/> <path d="M12 3C12 7.97056 16.0294 12 21 12C16.0294 12 12 16.0294 12 21C12 16.0294 7.97056 12 3 12C7.97056 12 12 7.97056 12 3Z" stroke="#000000" stroke-width="0.45600000000000007" stroke-linecap="round" stroke-linejoin="round"/> </g>
</svg>